HIERARCHY
ROOT Hips
{
	OFFSET 0.00 0.00 0.00
	CHANNELS 6 Xposition Yposition Zposition Xrotation Yrotation Zrotation
	JOINT LeftUpLeg
	{
		OFFSET 3.25772 0.00000 0.00000
		CHANNELS 3 Xrotation Yrotation Zrotation
		JOINT LeftLeg
		{
			OFFSET 0.00000 -15.35355 0.00000
			CHANNELS 3 Xrotation Yrotation Zrotation
			JOINT LeftFoot
			{
				OFFSET 0.00000 -16.48949 0.00000
				CHANNELS 3 Xrotation Yrotation Zrotation
				JOINT LeftToeBase
				{
					OFFSET 0.00000 -1.72224 6.42750
					CHANNELS 3 Xrotation Yrotation Zrotation
					End Site
					{
						OFFSET 0.00000 0.00000 2.95275
					}
				}
			}
		}
	}
	JOINT RightUpLeg
	{
		OFFSET -3.25772 0.00000 0.00000
		CHANNELS 3 Xrotation Yrotation Zrotation
		JOINT RightLeg
		{
			OFFSET 0.00000 -15.35355 0.00000
			CHANNELS 3 Xrotation Yrotation Zrotation
			JOINT RightFoot
			{
				OFFSET 0.00000 -16.48949 0.00000
				CHANNELS 3 Xrotation Yrotation Zrotation
				JOINT RightToeBase
				{
					OFFSET 0.00000 -1.72224 6.42750
					CHANNELS 3 Xrotation Yrotation Zrotation
					End Site
					{
						OFFSET 0.00000 0.00000 2.95275
					}
				}
			}
		}
	}
	JOINT Spine
	{
		OFFSET 0.00000 0.03937 0.00000
		CHANNELS 3 Xrotation Yrotation Zrotation
		JOINT Spine1
		{
			OFFSET 0.00000 10.14986 0.00000
			CHANNELS 3 Xrotation Yrotation Zrotation
			JOINT Neck
			{
				OFFSET 0.00000 9.84250 0.00000
				CHANNELS 3 Xrotation Yrotation Zrotation
				JOINT Head
				{
					OFFSET 0.00000 4.54023 0.00000
					CHANNELS 3 Xrotation Yrotation Zrotation
					End Site
					{
						OFFSET 0.00000 4.52755 0.00000
					}
				}
			}
			JOINT LeftShoulder
			{
				OFFSET 0.00000 9.84250 0.00000
				CHANNELS 3 Xrotation Yrotation Zrotation
				JOINT LeftArm
				{
					OFFSET 7.21510 -0.00003 0.00000
					CHANNELS 3 Xrotation Yrotation Zrotation
					JOINT LeftForeArm
					{
						OFFSET 10.66411 -0.00004 0.00000
						CHANNELS 3 Xrotation Yrotation Zrotation
						JOINT LeftHand
						{
							OFFSET 8.93656 -0.00003 0.00000
							CHANNELS 3 Xrotation Yrotation Zrotation
							JOINT L_Wrist_End
							{
								OFFSET 3.93700 -0.00001 0.00000
								CHANNELS 3 Xrotation Yrotation Zrotation
							}
						}
					}
				}
			}
			JOINT RightShoulder
			{
				OFFSET 0.00000 9.84250 0.00000
				CHANNELS 3 Xrotation Yrotation Zrotation
				JOINT RightArm
				{
					OFFSET -7.21510 -0.00003 0.00000
					CHANNELS 3 Xrotation Yrotation Zrotation
					JOINT RightForeArm
					{
						OFFSET -10.66411 -0.00004 0.00000
						CHANNELS 3 Xrotation Yrotation Zrotation
						JOINT RightHand
						{
							OFFSET -8.93656 -0.00003 0.00000
							CHANNELS 3 Xrotation Yrotation Zrotation
							JOINT R_Wrist_End
							{
								OFFSET -5.41338 -0.00002 0.00000
								CHANNELS 3 Xrotation Yrotation Zrotation
							}
						}
					}
				}
			}
		}
	}
}
MOTION
Frames: 20
Frame Time: 0.008333
 -1.3613 33.0442 48.1930 0.9923 -6.3262 0.3344 -21.1167 22.5134 9.7175 2.5673 -0.0000 0.0000 -4.0684 -7.0983 -5.9662 -39.5879 0.0000 -0.0000 11.3677 8.4836 0.8065 12.6746 -0.0000 0.0000 -10.6305 -11.0237 -6.1489 -35.2709 0.0000 0.0000 -15.4778 1.1175 -4.1245 26.6872 6.6697 0.8910 -14.5137 16.5108 17.5587 -23.1013 -28.3175 -38.3298 18.1852 10.3140 7.1809 -4.7994 -24.4577 -73.1331 -0.0001 -27.5599 -0.0000 -3.7514 0.4328 18.6109 -0.0000 0.0000 -0.0000 7.5138 1.7260 -5.6151 -19.5973 54.1227 63.9438 -0.0002 47.7581 0.0001 -12.6185 -13.4130 -18.3558 -0.0000 0.0000 -0.0000
 -1.3300 33.0149 48.4694 1.0008 -6.5315 0.1893 -20.9700 22.4824 9.7485 2.1706 0.0000 -0.0000 -4.2119 -6.5081 -6.3407 -39.6351 0.0000 -0.0000 11.6500 8.7102 0.7720 12.9738 -0.0000 0.0000 -10.5414 -10.9238 -5.7702 -35.7782 0.0000 -0.0000 -15.5459 1.3977 -3.9202 26.6671 6.7778 0.6945 -14.3651 16.5230 17.3071 -23.1826 -28.3983 -38.2886 18.0297 10.1824 6.9723 -4.3960 -24.4989 -73.1757 -0.0001 -27.3225 -0.0000 -4.4195 0.6328 18.6367 -0.0000 -0.0000 0.0000 7.4432 2.0022 -5.8878 -19.4779 54.1981 63.8070 -0.0002 48.2244 0.0001 -12.3551 -13.3797 -18.3409 -0.0000 0.0000 -0.0000
 -1.2931 32.9878 48.7505 0.9918 -6.6514 0.0238 -20.7510 22.3482 9.7481 1.9413 0.0000 -0.0000 -4.2151 -5.7694 -6.7399 -40.0413 0.0000 0.0000 11.9450 8.5152 0.7199 13.3097 -0.0000 0.0000 -10.3812 -10.4291 -5.4276 -36.4392 0.0000 -0.0000 -15.5100 1.6536 -3.6666 26.6540 6.8364 0.4829 -14.7091 15.7961 17.0186 -22.4257 -28.1488 -37.9149 18.2286 10.0523 6.6842 -4.4510 -24.5845 -73.2700 -0.0001 -26.5943 -0.0000 -4.2704 -0.0376 18.3333 -0.0000 -0.0000 0.0000 7.1257 1.7962 -6.0110 -19.4315 54.9440 63.7427 -0.0002 48.2888 0.0001 -12.7148 -13.0647 -18.2571 -0.0000 0.0000 -0.0000
 -1.2581 32.9557 49.0405 1.0851 -6.5767 -0.0329 -20.7567 21.5472 9.6542 2.4078 0.0000 -0.0000 -4.4994 -4.8079 -6.4029 -39.7525 0.0000 -0.0000 12.2666 8.3578 0.6402 13.4805 -0.0000 0.0000 -10.2266 -10.2570 -5.0232 -37.1078 0.0000 0.0000 -15.5243 1.7923 -3.6666 26.4212 6.9166 0.3824 -14.5700 15.9207 16.8703 -22.4539 -28.0914 -37.9962 18.1332 10.1638 6.5419 -4.2805 -24.7726 -73.5137 -0.0001 -26.2987 -0.0000 -3.3513 0.6178 18.0365 -0.0000 -0.0000 0.0000 7.1466 1.8844 -6.1067 -19.1474 55.1262 63.4580 -0.0002 48.8159 0.0001 -12.5665 -13.1449 -18.4812 -0.0000 0.0000 -0.0000
 -1.2069 32.9306 49.3237 1.0300 -6.6464 -0.1049 -20.7037 21.2451 9.6346 3.0635 -0.0000 0.0000 -4.7858 -4.4604 -5.9827 -39.6218 0.0000 0.0000 12.6294 8.0629 0.4925 13.8295 -0.0000 0.0000 -10.1109 -9.9052 -4.7372 -37.6993 0.0000 0.0000 -15.4478 2.0307 -3.5066 26.2865 6.9204 0.0962 -14.2794 16.1853 16.9667 -23.3117 -28.3600 -38.5784 18.3414 10.2342 6.3382 -4.4734 -25.2039 -73.7086 -0.0001 -25.5126 -0.0000 -4.0526 0.2838 18.2647 -0.0000 0.0000 -0.0000 7.5072 2.0038 -6.1323 -19.2420 55.2699 62.9910 -0.0002 49.0312 0.0001 -12.2550 -12.9276 -17.8577 -0.0000 -0.0000 0.0000
 -1.1547 32.9121 49.6342 0.9939 -6.6714 -0.1759 -20.5992 20.5611 9.6039 4.0279 0.0000 -0.0000 -5.1141 -3.7718 -5.3367 -39.5697 0.0000 0.0000 13.0551 7.7836 0.3242 14.0938 -0.0000 0.0000 -9.8569 -9.4428 -4.5079 -38.3307 0.0000 0.0000 -15.4719 2.2015 -3.2863 26.3510 6.7871 -0.2607 -14.4862 15.9186 16.6467 -22.6837 -28.1141 -38.1208 18.3581 10.3522 5.9725 -4.3579 -25.2218 -73.7298 -0.0001 -25.0951 -0.0000 -3.6049 0.2939 18.1004 -0.0000 0.0000 -0.0000 7.6253 2.0509 -6.2165 -19.4163 55.9275 62.9458 -0.0002 49.2644 0.0001 -12.4885 -13.4597 -18.4514 -0.0000 -0.0000 0.0000
 -1.1290 32.8898 49.9269 1.0268 -6.7049 -0.2027 -20.7928 20.0195 9.7235 5.4250 0.0000 -0.0000 -5.4148 -3.4685 -4.6883 -39.9479 0.0000 0.0000 13.2808 7.5700 0.2015 14.5419 -0.0000 0.0000 -9.6430 -9.0727 -4.2074 -39.0844 0.0000 0.0000 -15.4803 2.3850 -3.3253 26.2518 6.8806 -0.4468 -14.6152 15.5921 16.6762 -22.5206 -28.0075 -38.2714 18.1193 10.4828 5.8549 -4.1788 -25.4453 -73.9322 -0.0001 -24.6293 -0.0000 -4.0144 0.6119 18.1585 -0.0000 -0.0000 0.0000 7.4367 2.0622 -6.2868 -19.2600 56.1653 62.9425 -0.0002 49.4348 0.0001 -12.3240 -13.4158 -18.2329 -0.0000 0.0000 -0.0000
 -1.0495 32.8744 50.2648 0.5982 -6.7840 -0.1148 -20.1049 19.6617 9.4431 6.5262 -0.0000 0.0000 -5.5087 -3.0121 -4.1298 -40.0617 0.0000 -0.0000 14.0819 7.3424 -0.2279 14.9447 -0.0000 0.0000 -9.4060 -8.6213 -3.8798 -39.7805 0.0000 -0.0000 -15.2622 3.0330 -2.7515 26.5741 6.6042 -1.6271 -15.1171 14.8806 16.9819 -22.0407 -27.9720 -38.1166 18.1480 10.5852 6.2522 -4.6320 -25.9099 -74.2722 -0.0001 -23.6965 -0.0000 -3.9902 0.2684 18.2226 -0.0000 0.0000 -0.0000 7.1982 1.8387 -5.8502 -18.9071 56.4853 62.7376 -0.0002 49.6507 0.0001 -12.1466 -13.2663 -18.2902 -0.0000 0.0000 -0.0000
 -1.0077 32.8471 50.5662 0.6586 -6.7991 -0.1543 -20.3514 19.4940 9.4976 8.0679 -0.0000 0.0000 -5.9027 -3.2403 -3.4854 -39.4605 0.0000 0.0000 14.3045 7.2043 -0.3420 15.3317 -0.0000 0.0000 -9.0788 -8.4032 -3.4281 -40.6897 0.0000 0.0000 -15.2428 3.2028 -2.7411 26.3781 6.7102 -1.7515 -15.0250 14.8201 16.7505 -22.1256 -27.9479 -38.1616 18.0228 10.5609 6.0931 -4.4473 -26.1430 -74.4442 -0.0001 -23.1412 -0.0000 -3.1656 0.4612 17.9412 -0.0000 0.0000 -0.0000 7.4578 1.8164 -5.9896 -18.9335 56.5408 62.6922 -0.0003 50.1952 0.0001 -12.1894 -13.9176 -18.3257 -0.0000 -0.0000 0.0000
 -0.9264 32.8290 50.8984 0.7094 -6.9590 0.0737 -20.1864 19.7736 9.2407 9.1651 -0.0000 0.0000 -5.9902 -3.8475 -2.5258 -38.9889 0.0000 0.0000 14.5609 6.9185 -0.8801 15.8284 -0.0000 0.0000 -8.8522 -7.8653 -2.9062 -41.4607 0.0000 0.0000 -15.4248 3.7102 -2.4798 26.5339 6.6118 -2.5728 -15.4474 13.9236 16.8332 -21.4560 -27.8910 -37.9359 18.2542 10.5867 6.1343 -4.7671 -26.1836 -74.5835 -0.0001 -22.8546 -0.0000 -3.6167 0.9799 17.6847 -0.0000 -0.0000 0.0000 7.2102 1.8302 -5.8907 -18.3972 56.4399 62.5732 -0.0003 50.6297 0.0001 -12.0745 -13.8153 -18.0537 -0.0000 -0.0000 0.0000
 -0.8615 32.8139 51.2317 0.6927 -7.0589 0.1286 -19.8830 19.5949 9.0463 9.9162 -0.0000 0.0000 -5.9304 -3.9430 -1.5949 -39.0326 0.0000 -0.0000 14.8196 6.7048 -1.1914 16.3984 -0.0000 0.0000 -8.5132 -7.4457 -2.6944 -42.2883 0.0000 0.0000 -15.5094 3.9545 -2.3209 26.5168 6.4918 -3.0273 -15.2876 14.1405 16.7536 -21.6249 -27.9298 -38.0043 18.2593 10.6477 6.0933 -4.8157 -26.4485 -74.8604 -0.0001 -22.1052 -0.0000 -2.3629 1.1850 16.9991 -0.0000 -0.0000 0.0000 7.9338 1.8961 -5.8000 -18.7412 56.3797 62.3344 -0.0003 50.9197 0.0001 -11.5225 -13.5513 -17.2888 -0.0000 0.0000 -0.0000
 -0.7993 32.7925 51.5386 0.6708 -7.3373 0.1434 -19.7635 19.5442 8.9586 10.6769 -0.0000 0.0000 -5.9441 -3.7279 -1.0428 -38.2545 0.0000 -0.0000 14.9019 6.5534 -1.5170 17.1945 -0.0000 0.0000 -8.0642 -6.9114 -2.6654 -43.4784 0.0000 0.0000 -15.4005 4.3706 -2.1367 26.4316 6.6024 -3.4749 -15.5199 13.6919 16.7223 -21.5776 -27.8469 -38.0911 18.3950 10.5937 5.8763 -4.8198 -26.4144 -74.8399 -0.0001 -21.9724 -0.0000 -2.8229 1.2818 17.4193 -0.0000 -0.0000 0.0000 7.7064 1.5792 -5.7941 -18.3561 56.9545 62.3497 -0.0003 50.9807 0.0001 -12.0548 -13.3703 -17.6945 -0.0000 -0.0000 0.0000
 -0.7096 32.7809 51.9051 0.6577 -7.5357 0.3666 -19.1994 19.4208 8.5617 10.8496 -0.0000 0.0000 -5.6158 -3.8963 -1.3665 -38.0202 0.0000 -0.0000 15.2656 6.1760 -2.0960 17.6199 -0.0000 0.0000 -7.6710 -6.3245 -1.9729 -44.2270 0.0000 0.0000 -15.7080 4.7660 -1.9325 26.7667 6.4465 -4.2041 -15.2818 14.0696 16.8891 -22.4652 -28.1778 -38.5152 18.0845 10.7507 6.0792 -4.7756 -26.8065 -75.1815 -0.0001 -21.3344 -0.0000 -3.2952 1.2307 17.3985 -0.0000 -0.0000 0.0000 7.7623 1.6183 -5.6628 -17.9671 57.2118 62.0178 -0.0003 51.3051 0.0001 -11.4274 -13.7619 -17.8030 -0.0000 -0.0000 0.0000
 -0.6160 32.7642 52.2165 0.7856 -7.6163 0.5141 -18.8157 18.5467 8.2134 11.0833 -0.0000 0.0000 -5.1388 -3.5932 -1.5305 -37.8640 0.0000 -0.0000 15.1693 5.9042 -2.5204 18.4644 -0.0000 0.0000 -7.4653 -5.9719 -1.0813 -44.8973 0.0000 0.0000 -15.7533 4.9337 -1.8057 26.5645 6.2658 -4.6597 -15.1123 14.0802 16.5594 -22.5912 -28.2668 -38.3663 18.5099 10.6754 5.6922 -4.8324 -26.4597 -75.0797 -0.0001 -21.1489 -0.0000 -2.3750 1.0507 16.7469 -0.0000 -0.0000 0.0000 8.2685 1.8153 -5.7462 -18.0948 56.8729 62.0377 -0.0003 51.6263 0.0001 -11.0937 -13.5266 -17.0169 -0.0000 -0.0000 0.0000
 -0.5385 32.7630 52.5570 0.8738 -7.7582 0.7653 -18.3658 18.0610 7.8029 11.4190 -0.0000 0.0000 -4.6304 -3.5183 -1.6143 -37.7462 0.0000 -0.0000 15.2078 5.8264 -3.0438 19.2356 -0.0000 0.0000 -6.8218 -5.4978 -0.8024 -46.1272 0.0000 0.0000 -16.0247 5.2499 -1.7691 26.7402 6.0925 -5.3791 -14.9811 14.5834 16.9243 -23.3390 -28.6023 -38.5948 18.3239 10.8354 5.8922 -4.9246 -26.3949 -75.5317 -0.0001 -20.7463 -0.0000 -2.0523 1.3931 17.0492 -0.0000 0.0000 -0.0000 8.3395 1.9089 -5.4277 -17.4012 57.1312 61.4408 -0.0003 51.8283 0.0001 -11.2299 -13.9882 -17.2302 -0.0000 0.0000 -0.0000
 -0.4579 32.7726 52.8981 0.8897 -8.0427 0.8463 -17.9718 17.9607 7.6416 11.8051 -0.0000 0.0000 -4.4336 -3.7130 -1.8773 -37.5174 0.0000 0.0000 15.1902 5.6626 -3.4704 20.1182 -0.0000 0.0000 -6.1305 -4.9156 -0.5248 -47.2530 0.0000 -0.0000 -16.3102 5.5024 -1.6184 27.0393 6.0142 -5.8222 -14.8023 14.8951 16.7274 -23.8299 -28.7610 -38.5486 18.3212 10.9035 5.6830 -5.0135 -26.7570 -75.6260 -0.0001 -20.2033 -0.0000 -2.2357 1.3896 17.1201 -0.0000 -0.0000 0.0000 8.4714 2.0293 -5.4236 -16.9936 57.6263 61.0568 -0.0003 51.8111 0.0001 -12.1086 -13.3068 -17.7753 -0.0000 -0.0000 0.0000
 -0.3463 32.7753 53.2294 0.9316 -7.9899 1.1273 -17.6272 17.6324 7.1187 12.4008 -0.0000 0.0000 -4.3248 -3.5023 -2.0191 -37.2776 0.0000 -0.0000 15.1546 5.1315 -4.0828 21.0212 -0.0000 0.0000 -5.5258 -4.1658 0.1706 -48.3345 0.0000 0.0000 -16.4812 5.6661 -1.5418 27.2799 5.7585 -6.3708 -14.7181 14.8382 16.2323 -23.8811 -28.8837 -38.0554 18.4681 11.0017 5.4606 -5.2774 -27.5577 -75.6215 -0.0001 -19.6166 -0.0000 -2.2652 1.3952 17.1136 -0.0000 -0.0000 0.0000 8.3276 1.9974 -5.5547 -16.7765 57.7650 61.3025 -0.0003 51.9171 0.0001 -11.8198 -13.1501 -17.5907 -0.0000 -0.0000 0.0000
 -0.2583 32.7804 53.5468 1.0172 -7.7958 1.1508 -17.5673 17.5158 6.9196 13.1285 -0.0000 0.0000 -4.3649 -3.5654 -2.2524 -37.3526 0.0000 -0.0000 14.9691 4.8041 -4.3201 21.9851 -0.0000 0.0000 -4.6517 -3.6970 0.7714 -49.7037 0.0000 0.0000 -16.4634 5.7225 -1.4900 27.0735 5.6047 -6.6520 -14.6185 14.8289 16.2134 -24.2657 -28.9404 -38.3506 18.4705 10.8864 5.1913 -5.2359 -27.2599 -75.5794 -0.0001 -19.3591 -0.0000 -2.1019 1.4152 16.6799 -0.0000 0.0000 -0.0000 8.5439 1.9282 -5.6149 -16.6501 57.7283 61.5515 -0.0003 51.9867 0.0001 -11.4693 -13.2783 -17.7803 -0.0000 0.0000 -0.0000
 -0.1896 32.8055 53.8919 1.0638 -7.9948 1.2931 -17.3147 17.9602 6.7891 13.7740 -0.0000 0.0000 -4.3857 -3.6623 -2.2516 -37.0888 0.0000 0.0000 14.7005 4.5661 -4.7561 23.1655 -0.0000 0.0000 -3.7205 -3.1012 1.3110 -50.8501 0.0000 0.0000 -16.7351 6.0505 -1.4089 27.3402 5.5979 -7.1519 -14.5559 14.8557 16.0681 -24.5971 -29.1027 -38.2368 18.4135 10.7737 5.1121 -5.2940 -27.5803 -75.5264 -0.0001 -18.9130 -0.0000 -3.0012 1.2249 16.9180 -0.0000 -0.0000 0.0000 8.8687 1.7553 -5.5188 -16.7255 57.8896 61.6644 -0.0003 51.8017 0.0001 -11.2167 -13.0891 -17.6364 -0.0000 -0.0000 0.0000
 -0.1172 32.8275 54.2228 1.0441 -7.6905 1.2931 -17.1745 17.8495 6.6640 14.5947 -0.0000 0.0000 -4.4158 -3.7646 -2.3361 -37.1223 0.0000 -0.0000 14.4398 4.1914 -4.8988 24.4164 -0.0000 0.0000 -2.6282 -2.6938 1.6903 -52.1159 0.0000 0.0000 -16.8312 6.0888 -1.4881 27.4124 5.4843 -7.3819 -14.7470 14.4319 16.1789 -24.3621 -29.0965 -38.2317 18.1497 10.6997 5.2883 -5.4939 -27.8896 -75.8917 -0.0001 -17.9721 -0.0000 -3.6549 0.6834 16.7938 -0.0000 0.0000 -0.0000 8.9949 1.6824 -5.3668 -16.3006 57.6726 61.6173 -0.0003 51.9042 0.0001 -11.5686 -13.0869 -17.5402 -0.0000 -0.0000 0.0000
